<svg width="1800" height="340" viewBox="0 0 1800 340" fill="none" xmlns="http://www.w3.org/2000/svg">
<path d="M440.996 261.406H420.702V238.069H364.488V261.406H344.195V220.21H350.892C353.056 215.881 354.815 210.74 356.168 204.787C357.521 198.699 358.603 192.272 359.415 185.508C360.227 178.743 360.768 171.843 361.038 164.808C361.309 157.773 361.444 151.076 361.444 144.717V135.991H430.24V220.21H440.996V261.406ZM208.632 116.103H197.673C187.526 116.103 179.882 118.403 174.741 123.003C169.6 127.603 167.03 133.691 167.03 141.267C167.03 145.596 167.503 149.385 168.45 152.632C169.397 155.743 170.75 158.652 172.509 161.358C174.403 164.064 176.703 166.634 179.409 169.07C182.25 171.37 185.565 173.805 189.353 176.375L201.732 184.696L166.015 238.069H139.43L171.494 190.378C166.894 187.131 162.768 183.816 159.115 180.434C155.598 177.052 152.621 173.467 150.186 169.678C147.751 165.89 145.857 161.831 144.504 157.502C143.286 153.038 142.677 148.099 142.677 142.688C142.677 135.923 143.827 129.767 146.127 124.22C148.562 118.538 152.08 113.735 156.68 109.812C161.28 105.753 166.962 102.641 173.727 100.477C180.627 98.1766 188.541 97.0266 197.47 97.0266H233.188V238.069H208.632V116.103ZM471.843 195.046C472.248 204.246 474.413 211.078 478.337 215.542C482.26 220.007 488.889 222.239 498.225 222.239C503.907 222.239 509.521 221.292 515.068 219.398C520.751 217.369 525.418 215.137 529.071 212.701V231.169C525.554 233.604 521.089 235.701 515.677 237.46C510.266 239.218 503.771 240.098 496.195 240.098C481.042 240.098 469.34 235.769 461.087 227.11C452.969 218.451 448.911 205.193 448.911 187.334C448.911 179.622 449.722 172.52 451.346 166.026C453.105 159.532 455.743 153.917 459.26 149.182C462.778 144.311 467.175 140.591 472.451 138.02C477.863 135.314 484.154 133.961 491.325 133.961C497.142 133.961 502.419 134.841 507.154 136.6C512.024 138.358 516.151 141.199 519.533 145.123C522.915 149.046 525.486 154.12 527.245 160.343C529.139 166.431 530.086 173.94 530.086 182.869V195.046H471.843ZM332.018 135.991V238.069H309.898V194.843H275.602V238.069H253.481V135.991H275.602V176.984H309.898V135.991H332.018ZM570.47 186.725V238.069H548.35V135.991H570.47V185.305L606.188 135.991H629.322L594.62 183.884L633.787 238.069H607.811L570.47 186.725ZM681.072 240.098C665.107 240.098 653.269 235.566 645.557 226.501C637.981 217.436 634.193 204.313 634.193 187.131C634.193 179.419 635.14 172.317 637.034 165.823C639.064 159.193 641.972 153.579 645.76 148.979C649.684 144.244 654.487 140.591 660.169 138.02C665.851 135.314 672.481 133.961 680.057 133.961C685.875 133.961 690.88 134.435 695.074 135.382C699.268 136.194 702.583 137.344 705.018 138.832V158.314C702.718 156.826 699.539 155.405 695.48 154.052C691.421 152.699 687.16 152.023 682.695 152.023C674.442 152.023 668.084 154.932 663.619 160.749C659.29 166.431 657.125 175.022 657.125 186.522C657.125 197.481 659.087 206.14 663.01 212.498C666.934 218.857 673.428 222.036 682.492 222.036C687.363 222.036 691.557 221.428 695.074 220.21C698.727 218.857 702.042 217.166 705.018 215.137V233.807C702.177 235.836 698.795 237.392 694.871 238.474C691.083 239.557 686.483 240.098 681.072 240.098ZM408.12 153.849H380.926V158.111C380.926 162.576 380.791 167.581 380.521 173.128C380.25 178.675 379.776 184.29 379.1 189.972C378.423 195.654 377.476 201.134 376.259 206.41C375.176 211.687 373.756 216.286 371.997 220.21H408.12V153.849ZM490.919 151.82C484.695 151.82 480.028 154.12 476.916 158.72C473.804 163.184 472.113 169.746 471.843 178.405H507.56V175.767C507.56 172.384 507.289 169.273 506.748 166.431C506.207 163.455 505.26 160.884 503.907 158.72C502.689 156.555 500.998 154.864 498.833 153.646C496.804 152.429 494.166 151.82 490.919 151.82Z" fill="white"/>
<g filter="url(#filter0_f_11660_35604)">
<path d="M764.759 170.847C764.759 123.986 802.747 85.9983 849.607 85.9983C896.468 85.9983 934.456 123.986 934.456 170.847C934.456 217.707 896.468 255.695 849.607 255.695C802.747 255.695 764.759 217.707 764.759 170.847Z" fill="url(#paint0_linear_11660_35604)"/>
</g>
<path fill-rule="evenodd" clip-rule="evenodd" d="M942.406 170C942.406 221.715 900.476 263.644 848.761 263.644C797.046 263.644 755.117 221.715 755.117 170C755.117 118.285 797.046 76.3556 848.761 76.3556C900.476 76.3556 942.406 118.285 942.406 170ZM911.216 127.486C911.874 128.487 912.381 129.412 912.673 130.172H912.736C912.875 130.539 912.989 130.919 913.002 131.274C913.015 131.616 912.951 132.06 912.609 132.389L861.562 182.067C861.106 182.511 860.853 183.119 860.853 183.753L860.903 244.517C860.903 244.973 860.637 245.315 860.409 245.531C860.169 245.746 859.852 245.949 859.497 246.113C858.788 246.456 857.812 246.772 856.659 247.038C854.328 247.57 851.148 247.951 847.625 247.951C844.103 247.951 840.923 247.57 838.592 247.038C837.439 246.772 836.463 246.456 835.754 246.113C835.399 245.949 835.082 245.759 834.842 245.531C834.613 245.315 834.347 244.973 834.347 244.517L834.398 183.753C834.398 183.119 834.145 182.511 833.689 182.067L782.642 132.389C782.3 132.06 782.236 131.616 782.249 131.274C782.274 130.932 782.376 130.552 782.515 130.172C782.794 129.412 783.313 128.487 783.972 127.486C785.29 125.471 787.279 123.001 789.483 120.669V120.657C791.84 118.3 794.247 116.235 796.198 114.879C797.161 114.208 798.061 113.676 798.796 113.384C799.163 113.232 799.543 113.131 799.885 113.106C800.227 113.093 800.658 113.156 800.988 113.473L846.675 157.969C847.182 158.464 848.006 158.464 848.512 157.969L894.2 113.473C894.529 113.144 894.96 113.08 895.302 113.106C895.657 113.131 896.024 113.232 896.392 113.384C897.127 113.676 898.014 114.208 898.989 114.879C900.94 116.235 903.348 118.287 905.704 120.657V120.669C907.909 123.001 909.898 125.471 911.216 127.486Z" fill="white"/>
<path d="M1598.54 149.182C1601.66 144.176 1605.51 140.388 1610.11 137.817C1614.85 135.246 1620.06 133.961 1625.74 133.961C1631.42 133.961 1636.63 135.111 1641.36 137.411C1646.1 139.711 1650.16 143.161 1653.54 147.761C1656.92 152.226 1659.56 157.773 1661.45 164.402C1663.35 170.896 1664.3 178.405 1664.3 186.928C1664.3 195.451 1663.28 203.028 1661.25 209.657C1659.36 216.286 1656.65 221.901 1653.13 226.501C1649.75 230.966 1645.56 234.348 1640.55 236.648C1635.68 238.948 1630.34 240.098 1624.52 240.098C1613.83 240.098 1605.38 235.43 1599.15 226.095V267.494H1575V135.991H1597.33L1598.54 149.182ZM1618.43 221.022C1625.47 221.022 1630.68 218.316 1634.06 212.904C1637.58 207.492 1639.33 198.834 1639.33 186.928C1639.33 175.022 1637.71 166.431 1634.46 161.155C1631.22 155.743 1626.28 153.037 1619.65 153.037C1612.88 153.037 1607.81 155.608 1604.43 160.749C1601.05 165.89 1599.29 174.143 1599.15 185.507V187.131C1599.15 199.037 1600.71 207.695 1603.82 213.107C1607.07 218.383 1611.94 221.022 1618.43 221.022Z" fill="white"/>
<path d="M1500.58 195.654C1500.99 204.178 1503.08 210.536 1506.87 214.73C1510.66 218.925 1517.02 221.022 1525.95 221.022C1531.9 221.022 1537.72 220.075 1543.4 218.18C1549.22 216.286 1554.02 214.054 1557.81 211.483V231.168C1554.29 233.604 1549.69 235.701 1544.01 237.46C1538.33 239.218 1531.63 240.098 1523.92 240.098C1508.36 240.098 1496.39 235.768 1488 227.11C1479.74 218.451 1475.62 205.192 1475.62 187.334C1475.62 179.622 1476.5 172.519 1478.26 166.025C1480.02 159.531 1482.65 153.917 1486.17 149.182C1489.82 144.311 1494.36 140.59 1499.77 138.02C1505.31 135.314 1511.74 133.961 1519.05 133.961C1525.14 133.961 1530.61 134.841 1535.48 136.599C1540.36 138.358 1544.48 141.199 1547.86 145.123C1551.38 149.046 1554.09 154.12 1555.98 160.343C1557.88 166.431 1558.82 173.94 1558.82 182.869V195.654H1500.58ZM1518.64 153.037C1512.82 153.037 1508.43 155.134 1505.45 159.328C1502.47 163.522 1500.85 169.678 1500.58 177.796H1534.27V175.766C1534.27 172.519 1534 169.543 1533.46 166.837C1533.05 163.996 1532.24 161.561 1531.02 159.531C1529.8 157.502 1528.18 155.946 1526.15 154.864C1524.12 153.646 1521.62 153.037 1518.64 153.037Z" fill="white"/>
<path d="M1421.25 221.022C1426.93 221.022 1431.19 219.872 1434.03 217.572C1437.01 215.136 1438.5 211.889 1438.5 207.831C1438.5 203.231 1437.15 199.984 1434.44 198.09C1431.87 196.06 1427.47 195.046 1421.25 195.046H1407.04V177.187H1421.25C1431.13 177.187 1436.06 173.061 1436.06 164.808C1436.06 161.02 1434.71 158.111 1432.01 156.081C1429.43 154.052 1425.92 153.037 1421.45 153.037C1414.82 153.037 1409.21 154.052 1404.61 156.081C1400.01 157.976 1396.09 160.005 1392.84 162.17V142.485C1395.81 140.59 1399.87 138.696 1405.01 136.802C1410.29 134.908 1416.92 133.961 1424.9 133.961C1435.86 133.961 1444.52 136.261 1450.88 140.861C1457.24 145.461 1460.42 152.09 1460.42 160.749C1460.42 166.431 1459 171.437 1456.16 175.766C1453.45 180.096 1448.92 183.275 1442.56 185.304C1449.32 186.657 1454.46 189.296 1457.98 193.219C1461.63 197.007 1463.46 201.945 1463.46 208.034C1463.46 218.316 1460.15 226.23 1453.52 231.777C1446.89 237.324 1437.08 240.098 1424.09 240.098C1415.3 240.098 1407.99 239.151 1402.17 237.257C1396.49 235.227 1392.5 233.265 1390.2 231.371V211.686C1393.45 214.122 1397.84 216.286 1403.39 218.18C1409.07 220.075 1415.03 221.022 1421.25 221.022Z" fill="white"/>
<path d="M1315.49 269.524C1313.05 269.524 1311.02 269.321 1309.4 268.915C1307.78 268.644 1306.42 268.306 1305.34 267.9C1304.12 267.359 1303.11 266.75 1302.3 266.074V246.389C1305 249.095 1308.66 250.447 1313.26 250.447C1316.64 250.447 1319.35 249.703 1321.37 248.215C1323.4 246.862 1325.1 244.968 1326.45 242.533L1291.34 135.99H1316.71L1339.23 212.904L1361.76 135.99H1385.1L1353.24 232.589C1351.48 237.865 1349.58 242.736 1347.55 247.2C1345.52 251.665 1343.09 255.521 1340.25 258.768C1337.41 262.15 1333.96 264.788 1329.9 266.683C1325.97 268.577 1321.17 269.524 1315.49 269.524Z" fill="white"/>
<path d="M1258.94 191.596H1255.49C1245.07 191.596 1237.63 192.814 1233.16 195.249C1228.7 197.549 1226.47 201.608 1226.47 207.425C1226.47 211.754 1227.68 215.272 1230.12 217.978C1232.69 220.548 1236.55 221.834 1241.69 221.834C1246.02 221.834 1249.6 221.09 1252.44 219.601C1255.28 217.978 1257.45 216.016 1258.94 213.716V191.596ZM1283.09 213.107C1283.09 221.495 1283.49 229.816 1284.3 238.069H1260.76C1260.36 236.986 1259.95 235.701 1259.55 234.213C1259.27 232.725 1259.07 231.304 1258.94 229.951H1257.92C1255.62 232.386 1252.65 234.619 1248.99 236.648C1245.34 238.542 1240 239.489 1232.96 239.489C1223.63 239.489 1216.05 236.716 1210.23 231.169C1204.55 225.622 1201.71 217.64 1201.71 207.222C1201.71 196.805 1205.97 188.755 1214.49 183.073C1223.02 177.255 1236.55 174.346 1255.08 174.346H1258.94V168.664C1258.94 163.117 1257.58 159.261 1254.88 157.096C1252.17 154.797 1247.91 153.647 1242.09 153.647C1238.98 153.647 1235.8 153.985 1232.55 154.661C1229.31 155.202 1226.2 155.947 1223.22 156.894C1220.38 157.841 1217.67 158.923 1215.1 160.141C1212.67 161.358 1210.64 162.576 1209.01 163.793V143.703C1212.67 141.538 1217.54 139.441 1223.63 137.412C1229.71 135.382 1236.82 134.367 1244.93 134.367C1257.79 134.367 1267.32 136.938 1273.55 142.079C1279.91 147.22 1283.09 156.014 1283.09 168.461V213.107Z" fill="white"/>
<path d="M1124.89 149.182C1128 144.176 1131.86 140.388 1136.46 137.817C1141.19 135.246 1146.4 133.961 1152.08 133.961C1157.76 133.961 1162.97 135.111 1167.71 137.411C1172.44 139.711 1176.5 143.161 1179.88 147.761C1183.27 152.226 1185.91 157.773 1187.8 164.402C1189.69 170.896 1190.64 178.405 1190.64 186.928C1190.64 195.451 1189.63 203.028 1187.6 209.657C1185.7 216.286 1183 221.901 1179.48 226.501C1176.1 230.966 1171.9 234.348 1166.9 236.648C1162.03 238.948 1156.68 240.098 1150.86 240.098C1140.18 240.098 1131.72 235.43 1125.5 226.095V267.494H1101.35V135.991H1123.67L1124.89 149.182ZM1144.78 221.022C1151.81 221.022 1157.02 218.316 1160.4 212.904C1163.92 207.492 1165.68 198.834 1165.68 186.928C1165.68 175.022 1164.06 166.431 1160.81 161.155C1157.56 155.743 1152.62 153.037 1145.99 153.037C1139.23 153.037 1134.16 155.608 1130.77 160.749C1127.39 165.89 1125.63 174.143 1125.5 185.507V187.131C1125.5 199.037 1127.05 207.695 1130.16 213.107C1133.41 218.383 1138.28 221.022 1144.78 221.022Z" fill="white"/>
<path d="M993.141 97.0267H1075.74V116.103H1017.7V153.443H1032.92C1049.42 153.443 1062.07 156.691 1070.87 163.185C1079.66 169.543 1084.06 179.893 1084.06 194.234C1084.06 201.946 1082.84 208.575 1080.4 214.122C1077.97 219.534 1074.45 224.066 1069.85 227.719C1065.39 231.236 1059.91 233.875 1053.41 235.633C1047.05 237.257 1039.95 238.069 1032.1 238.069H993.141V97.0267ZM1032.1 218.992C1040.63 218.992 1047.26 217.166 1051.99 213.513C1056.73 209.86 1059.1 203.772 1059.1 195.249C1059.1 187.266 1056.86 181.517 1052.4 177.999C1048.07 174.346 1041.44 172.52 1032.51 172.52H1017.7V218.992H1032.1Z" fill="white"/>
<defs>
<filter id="filter0_f_11660_35604" x="760.902" y="82.1415" width="177.41" height="177.41" filterUnits="userSpaceOnUse" color-interpolation-filters="sRGB">
<feFlood flood-opacity="0" result="BackgroundImageFix"/>
<feBlend mode="normal" in="SourceGraphic" in2="BackgroundImageFix" result="shape"/>
<feGaussianBlur stdDeviation="1.92837" result="effect1_foregroundBlur_11660_35604"/>
</filter>
<linearGradient id="paint0_linear_11660_35604" x1="764.759" y1="174.054" x2="932.78" y2="159.075" gradientUnits="userSpaceOnUse">
<stop offset="0.195275" stop-color="#FF7223"/>
<stop offset="0.512986" stop-color="#FF2C21"/>
<stop offset="0.819891" stop-color="#FF5CDB"/>
</linearGradient>
</defs>
</svg>
